<svg xmlns="http://www.w3.org/2000/svg" viewBox="0 0 180 180" width="180" height="180"><rect width="180" height="180" rx="40" fill="#0B0B0D"/><rect x="39" y="18" width="18" height="18" rx="2.5" fill="#F97316"/><rect x="60" y="18" width="18" height="18" rx="2.5" fill="#F97316"/><rect x="81" y="18" width="18" height="18" rx="2.5" fill="#F97316"/><rect x="102" y="18" width="18" height="18" rx="2.5" fill="#F97316"/><rect x="123" y="18" width="18" height="18" rx="2.5" fill="#1A1A1E"/><rect x="39" y="39" width="18" height="18" rx="2.5" fill="#F97316"/><rect x="60" y="39" width="18" height="18" rx="2.5" fill="#1A1A1E"/><rect x="81" y="39" width="18" height="18" rx="2.5" fill="#1A1A1E"/><rect x="102" y="39" width="18" height="18" rx="2.5" fill="#1A1A1E"/><rect x="123" y="39" width="18" height="18" rx="2.5" fill="#F97316"/><rect x="39" y="60" width="18" height="18" rx="2.5" fill="#F97316"/><rect x="60" y="60" width="18" height="18" rx="2.5" fill="#1A1A1E"/><rect x="81" y="60" width="18" height="18" rx="2.5" fill="#1A1A1E"/><rect x="102" y="60" width="18" height="18" rx="2.5" fill="#1A1A1E"/><rect x="123" y="60" width="18" height="18" rx="2.5" fill="#F97316"/><rect x="39" y="81" width="18" height="18" rx="2.5" fill="#F97316"/><rect x="60" y="81" width="18" height="18" rx="2.5" fill="#F97316"/><rect x="81" y="81" width="18" height="18" rx="2.5" fill="#F97316"/><rect x="102" y="81" width="18" height="18" rx="2.5" fill="#F97316"/><rect x="123" y="81" width="18" height="18" rx="2.5" fill="#1A1A1E"/><rect x="39" y="102" width="18" height="18" rx="2.5" fill="#F97316"/><rect x="60" y="102" width="18" height="18" rx="2.5" fill="#1A1A1E"/><rect x="81" y="102" width="18" height="18" rx="2.5" fill="#F97316"/><rect x="102" y="102" width="18" height="18" rx="2.5" fill="#1A1A1E"/><rect x="123" y="102" width="18" height="18" rx="2.5" fill="#1A1A1E"/><rect x="39" y="123" width="18" height="18" rx="2.5" fill="#F97316"/><rect x="60" y="123" width="18" height="18" rx="2.5" fill="#1A1A1E"/><rect x="81" y="123" width="18" height="18" rx="2.5" fill="#1A1A1E"/><rect x="102" y="123" width="18" height="18" rx="2.5" fill="#F97316"/><rect x="123" y="123" width="18" height="18" rx="2.5" fill="#1A1A1E"/><rect x="39" y="144" width="18" height="18" rx="2.5" fill="#F97316"/><rect x="60" y="144" width="18" height="18" rx="2.5" fill="#1A1A1E"/><rect x="81" y="144" width="18" height="18" rx="2.5" fill="#1A1A1E"/><rect x="102" y="144" width="18" height="18" rx="2.5" fill="#1A1A1E"/><rect x="123" y="144" width="18" height="18" rx="2.5" fill="#F97316"/></svg>