<svg xmlns="http://www.w3.org/2000/svg" viewBox="0 0 102 144" width="102" height="144"><rect x="0" y="0" width="18" height="18" rx="2.5" fill="#F97316"/><rect x="21" y="0" width="18" height="18" rx="2.5" fill="#F97316"/><rect x="42" y="0" width="18" height="18" rx="2.5" fill="#F97316"/><rect x="63" y="0" width="18" height="18" rx="2.5" fill="#F97316"/><rect x="84" y="0" width="18" height="18" rx="2.5" fill="rgba(249,115,22,0.10)"/><rect x="0" y="21" width="18" height="18" rx="2.5" fill="#F97316"/><rect x="21" y="21" width="18" height="18" rx="2.5" fill="rgba(249,115,22,0.10)"/><rect x="42" y="21" width="18" height="18" rx="2.5" fill="rgba(249,115,22,0.10)"/><rect x="63" y="21" width="18" height="18" rx="2.5" fill="rgba(249,115,22,0.10)"/><rect x="84" y="21" width="18" height="18" rx="2.5" fill="#F97316"/><rect x="0" y="42" width="18" height="18" rx="2.5" fill="#F97316"/><rect x="21" y="42" width="18" height="18" rx="2.5" fill="rgba(249,115,22,0.10)"/><rect x="42" y="42" width="18" height="18" rx="2.5" fill="rgba(249,115,22,0.10)"/><rect x="63" y="42" width="18" height="18" rx="2.5" fill="rgba(249,115,22,0.10)"/><rect x="84" y="42" width="18" height="18" rx="2.5" fill="#F97316"/><rect x="0" y="63" width="18" height="18" rx="2.5" fill="#F97316"/><rect x="21" y="63" width="18" height="18" rx="2.5" fill="#F97316"/><rect x="42" y="63" width="18" height="18" rx="2.5" fill="#F97316"/><rect x="63" y="63" width="18" height="18" rx="2.5" fill="#F97316"/><rect x="84" y="63" width="18" height="18" rx="2.5" fill="rgba(249,115,22,0.10)"/><rect x="0" y="84" width="18" height="18" rx="2.5" fill="#F97316"/><rect x="21" y="84" width="18" height="18" rx="2.5" fill="rgba(249,115,22,0.10)"/><rect x="42" y="84" width="18" height="18" rx="2.5" fill="#F97316"/><rect x="63" y="84" width="18" height="18" rx="2.5" fill="rgba(249,115,22,0.10)"/><rect x="84" y="84" width="18" height="18" rx="2.5" fill="rgba(249,115,22,0.10)"/><rect x="0" y="105" width="18" height="18" rx="2.5" fill="#F97316"/><rect x="21" y="105" width="18" height="18" rx="2.5" fill="rgba(249,115,22,0.10)"/><rect x="42" y="105" width="18" height="18" rx="2.5" fill="rgba(249,115,22,0.10)"/><rect x="63" y="105" width="18" height="18" rx="2.5" fill="#F97316"/><rect x="84" y="105" width="18" height="18" rx="2.5" fill="rgba(249,115,22,0.10)"/><rect x="0" y="126" width="18" height="18" rx="2.5" fill="#F97316"/><rect x="21" y="126" width="18" height="18" rx="2.5" fill="rgba(249,115,22,0.10)"/><rect x="42" y="126" width="18" height="18" rx="2.5" fill="rgba(249,115,22,0.10)"/><rect x="63" y="126" width="18" height="18" rx="2.5" fill="rgba(249,115,22,0.10)"/><rect x="84" y="126" width="18" height="18" rx="2.5" fill="#F97316"/></svg>